<?xml version="1.0" encoding="UTF-8" standalone="no"?>
<svg xmlns="http://www.w3.org/2000/svg" version="1.1" viewBox="0.00 0.00 3980.00 790.00">
  <path fill="#e1082c" d="   M 797.64 241.11   A 0.30 0.30 0.0 0 0 797.41 240.60   Q 749.31 240.52 309.01 240.63   Q 307.97 240.63 307.58 240.45   A 0.70 0.70 0.0 0 1 307.34 239.35   L 414.68 118.21   A 1.03 1.02 20.5 0 1 415.45 117.86   L 1067.63 117.87   A 0.71 0.70 20.8 0 1 1068.15 119.04   L 756.00 470.11   A 0.72 0.71 -69.0 0 1 755.47 470.35   L 595.06 470.35   A 0.78 0.78 0.0 0 1 594.48 469.04   L 797.64 241.11   Z"></path>
  <path fill="#252627" d="   M 2654.5521 485.3815   A 128.56 128.56 0.0 0 1 2525.7679 613.7169   L 2345.5482 613.4024   A 128.56 128.56 0.0 0 1 2217.2128 484.6182   L 2217.5279 304.0785   A 128.56 128.56 0.0 0 1 2346.3121 175.7431   L 2526.5318 176.0576   A 128.56 128.56 0.0 0 1 2654.8672 304.8418   L 2654.5521 485.3815   Z   M 2525.68 535.96   A 51.54 51.54 0.0 0 0 2577.22 484.42   L 2577.23 304.78   A 51.54 51.54 0.0 0 0 2525.69 253.24   L 2346.43 253.24   A 51.54 51.54 0.0 0 0 2294.89 304.78   L 2294.89 484.42   A 51.54 51.54 0.0 0 0 2346.43 535.96   L 2525.68 535.96   Z"></path>
  <path fill="#252627" d="   M 2137.89 304.32   L 2137.87 485.28   A 128.28 128.28 0.0 0 1 2009.58 613.55   L 1829.03 613.53   A 128.28 128.28 0.0 0 1 1700.76 485.24   L 1700.78 304.28   A 128.28 128.28 0.0 0 1 1829.07 176.01   L 2009.62 176.03   A 128.28 128.28 0.0 0 1 2137.89 304.32   Z   M 1829.52 253.24   A 51.55 51.55 0.0 0 0 1777.97 304.79   L 1777.98 484.42   A 51.55 51.55 0.0 0 0 1829.53 535.97   L 2008.78 535.95   A 51.55 51.55 0.0 0 0 2060.33 484.40   L 2060.32 304.78   A 51.55 51.55 0.0 0 0 2008.77 253.23   L 1829.52 253.24   Z"></path>
  <path fill="#252627" d="   M 1359.47 535.99   L 1647.18 536.00   A 0.77 0.77 0.0 0 1 1647.82 537.19   L 1598.16 613.22   Q 1597.92 613.58 1597.49 613.58   L 1178.46 613.58   A 0.74 0.74 0.0 0 1 1177.90 612.35   L 1488.52 254.55   A 0.33 0.32 20.5 0 0 1488.27 254.01   L 1212.50 254.01   A 0.82 0.82 0.0 0 1 1211.89 252.65   L 1279.83 177.06   Q 1280.41 176.42 1281.27 176.42   L 1669.29 176.42   A 0.62 0.62 0.0 0 1 1669.90 176.96   Q 1669.98 177.48 1669.51 178.01   Q 1391.45 498.16 1359.21 535.41   A 0.35 0.35 0.0 0 0 1359.47 535.99   Z"></path>
  <path fill="#252627" d="   M 2966.13 323.36   Q 2966.27 323.36 2966.32 323.31   Q 3041.86 250.10 3117.19 176.90   Q 3117.66 176.45 3118.30 176.45   L 3196.51 176.44   Q 3197.58 176.44 3197.58 177.51   L 3197.52 613.05   A 0.57 0.56 0.0 0 1 3196.95 613.61   L 3120.50 613.60   A 0.61 0.61 0.0 0 1 3119.89 612.99   L 3120.11 277.56   A 0.32 0.31 -22.0 0 0 3119.58 277.34   Q 3014.27 377.29 2966.53 422.54   Q 2966.34 422.72 2966.11 422.72   Q 2965.88 422.72 2965.69 422.54   Q 2917.97 377.28 2812.69 277.30   A 0.32 0.31 22.0 0 0 2812.16 277.52   L 2812.28 612.95   A 0.61 0.61 0.0 0 1 2811.67 613.56   L 2735.22 613.54   A 0.57 0.56 0.0 0 1 2734.65 612.98   L 2734.71 177.44   Q 2734.71 176.37 2735.78 176.37   L 2813.99 176.41   Q 2814.63 176.41 2815.10 176.86   Q 2890.41 250.08 2965.93 323.31   Q 2965.98 323.36 2966.13 323.36   Z"></path>
  <rect fill="#252627" x="3278.83" y="176.42" width="77.56" height="437.16" rx="0.69"></rect>
  <path fill="#252627" d="   M 3643.44 176.42   Q 3827.24 176.44 3861.38 176.45   A 0.59 0.59 0.0 0 1 3861.97 177.04   L 3862.24 253.28   A 0.75 0.75 0.0 0 1 3861.49 254.03   L 3682.64 254.02   A 0.61 0.60 -0.0 0 0 3682.03 254.62   L 3681.99 612.75   A 0.83 0.77 90.0 0 1 3681.22 613.58   Q 3661.79 613.58 3643.40 613.58   Q 3625.00 613.58 3605.57 613.57   A 0.83 0.77 -90.0 0 1 3604.80 612.74   L 3604.84 254.61   A 0.61 0.60 0.0 0 0 3604.23 254.01   L 3425.38 253.98   A 0.75 0.75 0.0 0 1 3424.63 253.23   L 3424.91 176.99   A 0.59 0.59 0.0 0 1 3425.50 176.40   Q 3459.64 176.40 3643.44 176.42   Z"></path>
  <path fill="#e1082c" d="   M 390.00 549.80   L 879.38 549.80   A 0.84 0.84 0.0 0 1 880.01 551.19   L 773.05 671.75   A 1.15 1.15 0.0 0 1 772.19 672.13   L 119.00 672.13   A 0.43 0.42 -72.9 0 1 118.65 671.47   Q 119.56 670.13 119.72 669.95   Q 415.69 337.55 431.68 319.88   Q 431.88 319.65 432.19 319.65   L 593.02 319.65   Q 593.57 319.65 593.47 320.19   Q 593.35 320.79 592.73 321.48   Q 583.98 331.20 389.70 549.14   A 0.39 0.39 0.0 0 0 390.00 549.80   Z"></path>
</svg>
